<svg width="30" height="30" viewBox="-4 0 32 32" xmlns="http://www.w3.org/2000/svg"><path d="M24 8.531a10.7 10.7 0 0 1-2.469 2.563c.031.219.031.438.031.656 0 6.5-4.938 14-14 14-2.781 0-5.375-.844-7.563-2.219.375.031.781.094 1.188.094 2.313 0 4.406-.813 6.094-2.125-2.188-.031-3.969-1.5-4.594-3.438.281.063.625.094.938.094a4.6 4.6 0 0 0 1.313-.188C2.657 17.53.969 15.562.969 13.187v-.063c.688.344 1.406.563 2.219.594C1.875 12.812 1 11.312 1 9.624c0-.906.25-1.75.656-2.5 2.438 2.969 6.063 4.969 10.156 5.156a6.478 6.478 0 0 1-.125-1.125c0-2.719 2.188-4.938 4.906-4.938 1.438 0 2.719.625 3.625 1.594 1.125-.219 2.156-.656 3.094-1.219a4.828 4.828 0 0 1-2.125 2.75c1-.125 1.906-.406 2.813-.813z"/></svg>
